<?xml version="1.0" encoding="UTF-8" standalone="no"?>
<!DOCTYPE svg PUBLIC "-//W3C//DTD SVG 1.1//EN" "http://www.w3.org/Graphics/SVG/1.1/DTD/svg11.dtd">
<svg width="100%" height="100%" viewBox="0 0 1662 1662" version="1.1" xmlns="http://www.w3.org/2000/svg" xmlns:xlink="http://www.w3.org/1999/xlink" xml:space="preserve" xmlns:serif="http://www.serif.com/" style="fill-rule:evenodd;clip-rule:evenodd;stroke-linejoin:round;stroke-miterlimit:2;">
    <path d="M864,229C864,229.55 861.75,230 859,230C856.25,230 854,230.45 854,231C854,231.556 851.333,232 848,232C844.7,232 842,232.394 842,232.875C842,233.356 840.65,234.02 839,234.35C837.35,234.68 836,235.471 836,236.108C836,236.744 835.067,238.074 833.927,239.063C832.151,240.603 832.029,241.185 833.071,243.132C833.97,244.813 833.989,245.504 833.143,245.786C831.593,246.302 831.684,253.686 833.25,254.417C834.25,254.883 834.25,255.117 833.25,255.583C831.71,256.302 831.471,272 833,272C833.55,272 834,273.548 834,275.441C834,277.334 834.361,279.105 834.802,279.378C835.243,279.65 836.224,282.152 836.983,284.937C837.741,287.721 838.73,290 839.181,290C839.631,290 840,290.801 840,291.779C840,292.758 840.9,294.207 842,295C843.1,295.793 844,297.512 844,298.82C844,300.172 845.293,302.406 847,304C848.65,305.541 850,307.329 850,307.973C850,308.616 850.697,309.84 851.549,310.692C852.401,311.544 853.357,313.537 853.674,315.121C853.991,316.704 854.644,318 855.125,318C855.606,318 856,318.717 856,319.594C856,320.47 856.9,321.423 858,321.71C859.107,322 860,323.074 860,324.117C860,325.333 860.708,326 862,326C863.152,326 864,326.667 864,327.571C864,329.499 866.377,332 868.208,332C868.951,332 870.207,332.9 871,334C871.793,335.1 873.242,336 874.221,336C876.246,336 876.634,337.622 874.759,338.247C873.878,338.541 874.05,339.193 875.35,340.493C876.75,341.893 877.365,342.028 877.959,341.066C878.488,340.211 879.083,340.8 879.817,342.904C880.41,344.607 881.594,346 882.448,346C883.302,346 884,346.45 884,347C884,347.55 884.719,348 885.599,348C886.478,348 888.459,349.35 890,351C891.541,352.65 893.329,354 893.973,354C895.947,354 898,356.725 898,359.345C898,360.714 898.503,362.001 899.117,362.206C899.846,362.449 900.2,365.933 900.137,372.242C900.083,377.591 900.477,382.177 901.02,382.512C901.559,382.845 902,384.179 902,385.476C902,386.772 902.563,388.035 903.25,388.282C904.098,388.586 903.776,389.375 902.25,390.733C900.529,392.264 900,393.823 900,397.367C900,399.915 900.425,402 900.945,402C901.501,402 901.847,408.177 901.785,417C901.728,425.25 901.303,432 900.841,432C899.628,432 899.808,438.252 901.166,443.331C901.842,445.859 901.984,448.492 901.503,449.596C900.3,452.356 900.263,453.347 901.311,454.75C901.918,455.562 901.852,456 901.122,456C900.48,456 900,457.709 900,460C900,462.2 900.435,464 900.967,464C901.554,464 902.092,473.933 902.335,489.25C902.732,514.262 903.387,522 905.109,522C906.434,522 906.187,527.413 904.8,528.8C903.867,529.733 903.867,530 904.8,530C905.461,530 906,531.32 906,532.941C906,534.559 906.45,536.16 907,536.5C908.423,537.38 908.24,541.721 906.75,542.417C905.75,542.883 905.75,543.117 906.75,543.583C907.527,543.946 908,546.241 908,549.649C908,552.664 908.496,556.059 909.103,557.193C909.949,558.774 909.891,559.476 908.853,560.203C907.8,560.942 907.777,561.265 908.75,561.659C910.379,562.32 910.425,570 908.8,570C907.867,570 907.867,570.267 908.8,571.2C909.466,571.866 910,575.062 910,578.379C910,581.667 910.549,585.877 911.221,587.734C912.239,590.551 912.198,591.278 910.971,592.131C909.858,592.904 909.804,593.276 910.75,593.659C911.581,593.997 912,596.487 912,601.083C912,605.028 912.43,608 913,608C913.55,608 914,609.35 914,611C914,612.65 914.45,614 915,614C915.55,614 916,615.35 916,617C916,618.65 915.55,620 915,620C914.45,620 914,620.9 914,622C914,623.1 913.55,624 913,624C912.45,624 912,624.9 912,626C912,627.333 911.333,628 910,628C908.9,628 908,628.45 908,629C908,629.55 906.843,630 905.429,630C902.786,630 900,627.979 900,626.062C900,625.468 898.65,623.569 897,621.843C895.35,620.116 894,618.095 894,617.352C894,616.608 893.55,616 893,616C892.45,616 892,615.29 892,614.422C892,613.553 890.2,611.114 888,609C885.8,606.886 884,604.726 884,604.199C884,603.672 882.2,601.386 880,599.119C877.8,596.852 876,594.323 876,593.499C876,592.674 875.55,592 875,592C874.45,592 874,591.1 874,590C874,588.9 873.55,588 873,588C872.45,588 872,586.96 872,585.689C872,584.417 871.1,582.411 870,581.23C868.9,580.05 868,578.39 868,577.542C868,576.694 867.55,576 867,576C866.45,576 866,575.1 866,574C866,572.9 865.55,572 865,572C864.45,572 864,570.65 864,569C864,567.35 863.55,566 863,566C862.45,566 862,565.1 862,564C862,562.9 861.55,562 861,562C860.45,562 860,561.093 860,559.984C860,557.168 857.671,550 856.757,550C856.34,550 856,549.1 856,548C856,546.9 855.55,546 855,546C854.45,546 854,544.2 854,542C854,539.8 853.55,538 853,538C852.45,538 852,537.1 852,536C852,534.9 851.55,534 851,534C850.45,534 850,532.65 850,531C850,529.35 849.55,528 849,528C848.419,528 848,524.74 848,520.221C848,513.589 847.705,512.229 846,511C844.9,510.207 844,508.758 844,507.779C844,506.801 843.55,506 843,506C842.45,506 842,503.849 842,501.221C842,497.589 841.52,496.096 840,495C838.607,493.996 838,492.411 838,489.779C838,487.701 837.55,486 837,486C836.45,486 836,484.65 836,483C836,481.35 835.55,480 835,480C834.45,480 834,479.1 834,478C834,476.9 833.55,476 833,476C832.45,476 832,474.119 832,471.821C832,467.85 830.219,461.074 828.893,460C828.554,459.725 827.973,457.925 827.601,456C827.23,454.075 826.653,451.15 826.318,449.5C825.983,447.85 824.874,445.772 823.854,444.883C822.834,443.993 822,442.081 822,440.633C822,439.185 821.55,438 821,438C820.45,438 820,437.1 820,436C820,434.9 819.639,434 819.198,434C818.757,434 818.349,432.326 818.291,430.281C818.233,428.235 817.694,426.398 817.093,426.198C816.492,425.997 816,425.07 816,424.137C816,423.205 815.1,421.793 814,421C812.9,420.207 812,418.758 812,417.779C812,416.801 811.55,416 811,416C810.45,416 810,414.65 810,413C810,411.35 809.55,410 809,410C808.45,410 808,409.293 808,408.429C808,406.408 805.592,404 803.571,404C802.707,404 802,403.55 802,403C802,402.45 800.65,402 799,402C797.35,402 796,402.45 796,403C796,403.55 795.1,404 794,404C792.749,404 792,404.667 792,405.779C792,406.758 791.1,408.207 790,409C788.826,409.847 788,411.589 788,413.221C788,414.749 787.55,416 787,416C786.45,416 786,418.25 786,421C786,423.75 785.55,426 785,426C783.667,426 783.612,625.697 784.945,626.167C785.474,626.353 785.974,633.445 786.081,642.25C786.185,650.913 786.66,658 787.135,658C787.611,658 788,658.9 788,660C788,661.1 788.45,662 789,662C789.55,662 790,664.25 790,667C790,669.75 790.45,672 791,672C792.393,672 792.253,675.347 790.8,676.8C789.867,677.733 789.867,678 790.8,678C791.59,678 792,679.909 792,683.592C792,687.67 792.542,689.873 794,691.727C795.1,693.126 796,695.109 796,696.135C796,697.161 796.45,698 797,698C797.55,698 798,698.9 798,700C798,701.1 798.45,702 799,702C799.55,702 800,703.35 800,705C800,706.65 800.45,708 801,708C801.55,708 802,708.9 802,710C802,711.1 802.45,712 803,712C803.55,712 804,713.8 804,716C804,718.2 804.45,720 805,720C805.55,720 806,720.801 806,721.779C806,722.758 806.9,724.207 808,725C809.1,725.793 810,727.527 810,728.853C810,730.18 810.998,732.131 812.218,733.189C814.101,734.822 814.214,735.266 812.968,736.132C811.856,736.905 811.803,737.275 812.75,737.659C813.438,737.938 814,738.992 814,740C814,741.008 814.563,742.06 815.25,742.338C816.232,742.734 816.227,742.859 815.224,742.921C813.585,743.022 822.514,752 824.253,752C824.971,752 826.207,752.9 827,754C829.102,756.917 833.398,756.617 834.839,753.453C836.311,750.224 836.478,708 835.02,708C834.433,708 834.055,703.29 834.077,696.269C834.101,688.881 833.723,684.408 833.057,684.186C832.475,683.992 832,681.211 832,678C832,674.311 831.54,671.952 830.75,671.583C829.75,671.117 829.75,670.883 830.75,670.417C831.567,670.035 832,667.516 832,663.137C832,657.589 831.657,656.195 830,655C828.826,654.153 828,652.411 828,650.779C828,649.251 827.55,648 827,648C826.417,648 826,644.667 826,640C826,635.6 825.595,632 825.101,632C823.894,632 822.952,624.86 822.365,611.25C822.097,605.063 821.456,600 820.939,600C820.423,600 820,598.237 820,596.083C820,593.929 819.475,591.992 818.834,591.778C817.951,591.484 817.947,590.592 818.817,588.096C819.641,585.731 819.663,584.239 818.895,582.804C818.228,581.557 817.818,572.367 817.808,558.402C817.798,545.893 817.395,536 816.895,536C816.403,536 816,534.65 816,533C816,531.35 816.45,530 817,530C817.55,530 818,529.293 818,528.429C818,527.564 818.698,526.159 819.551,525.307C820.951,523.906 821.238,523.937 822.519,525.628C823.298,526.658 823.951,528.063 823.968,528.75C823.986,529.438 824.45,530 825,530C825.55,530 826,531.35 826,533C826,534.65 826.45,536 827,536C827.55,536 828,537.635 828,539.633C828,541.922 828.686,543.863 829.854,544.883C831.703,546.495 832.648,549.687 833.665,557.75C833.96,560.087 834.606,562 835.101,562C835.595,562 836,563.251 836,564.779C836,566.411 836.826,568.153 838,569C839.393,570.004 840,571.589 840,574.221C840,576.299 840.337,578.004 840.75,578.008C841.648,578.017 844,582.86 844,584.699C844,585.415 844.45,586 845,586C845.55,586 846,586.9 846,588C846,589.1 846.45,590 847,590C847.55,590 848,590.735 848,591.633C848,592.531 848.828,593.993 849.84,594.883C850.852,595.772 851.978,597.706 852.342,599.18C852.705,600.654 853.677,602.534 854.502,603.359C855.326,604.183 856,605.564 856,606.429C856,607.293 856.45,608 857,608C857.55,608 858,608.9 858,610C858,611.1 858.45,612 859,612C859.55,612 860,612.9 860,614C860,615.1 860.45,616 861,616C861.55,616 862,617.35 862,619C862,620.65 862.45,622 863,622C863.55,622 864,622.9 864,624C864,625.333 864.667,626 866,626C867.483,626 868,626.667 868,628.578C868,630.279 869.361,632.465 872,635C874.43,637.335 876,639.761 876,641.181C876,642.467 876.9,644.081 878,644.768C879.164,645.495 880,647.1 880,648.607C880,650.196 881.16,652.281 883,654C884.65,655.541 886,657.496 886,658.344C886,660.323 889.818,666.852 892.652,669.718C893.858,670.938 895.135,672.85 895.49,673.968C895.845,675.087 897.003,676 898.067,676C899.158,676 900,676.685 900,677.571C900,679.403 902.346,682 904,682C905.654,682 908,684.597 908,686.429C908,687.293 908.45,688 909,688C909.55,688 910,688.719 910,689.599C910,690.478 911.35,692.459 913,694C914.65,695.541 916,697.522 916,698.401C916,699.281 916.45,700 917,700C917.55,700 918,700.9 918,702C918,703.181 918.667,704 919.628,704C921.338,704 934,716.481 934,718.167C934,719.452 936.063,721.446 938.25,722.275C939.212,722.639 940,723.626 940,724.469C940,725.333 940.871,726 942,726C943.137,726 944,726.667 944,727.545C944,729.608 948.072,733.536 950.189,733.516C951.117,733.507 952.827,732.482 953.988,731.239C955.861,729.232 956.079,727.904 955.922,719.469C955.825,714.239 955.352,709.718 954.872,709.421C954.393,709.125 954,705.984 954,702.441C954,698.898 953.638,696 953.196,696C952.753,696 952.285,694.2 952.155,692C952.022,689.745 952.373,688 952.959,688C954.234,688 954.349,684.334 953.1,683.562C952.604,683.256 952.138,677.041 952.062,669.753C951.985,662.288 951.505,656.354 950.963,656.167C950.433,655.983 950,652.721 950,648.917C950,644.972 949.57,642 949,642C948.429,642 948,639 948,635C948,631 947.571,628 947,628C946.45,628 946,626.2 946,624C946,621.8 945.55,620 945,620C944.45,620 944,618.65 944,617C944,615.35 943.55,614 943,614C942.394,614 942,609.667 942,603C942,596.95 941.615,592 941.144,592C940.674,592 940.039,588.737 939.733,584.75C939.428,580.763 938.47,575.475 937.604,573C936.738,570.525 936.023,565.237 936.015,561.25C936.006,557.093 935.573,554 935,554C934.401,554 934,550.028 934,544.083C934,538.629 933.572,534.017 933.048,533.833C932.504,533.643 932.018,525.906 931.912,515.75C931.811,505.988 931.339,498 930.864,498C930.389,498 930,496.2 930,494C930,491.8 929.55,490 929,490C928.45,490 928,488.65 928,487C928,485.35 928.45,484 929,484C929.617,484 930,478.853 930,470.559C930,462.677 929.586,456.862 929,456.5C928.424,456.144 928,450.851 928,444.024C928,436.741 927.601,432.034 926.965,431.822C926.327,431.609 925.916,426.596 925.894,418.738C925.873,411.59 925.45,406 924.929,406C924.418,406 924,403.3 924,400C924,396.667 923.556,394 923,394C922.45,394 922,392.65 922,391C922,389.35 921.55,388 921,388C920.45,388 920,387.31 920,386.467C920,384.386 927.241,377.223 927.762,378.787C927.987,379.462 929.903,380 932.083,380C934.237,380 936,380.45 936,381C936,381.55 936.801,382 937.779,382C938.758,382 940.207,382.9 941,384C941.793,385.1 943.032,386 943.754,386C944.476,386 946.627,387.56 948.533,389.467L952,392.933L952,402.467C952,408.156 952.403,412 953,412C953.55,412 954,412.9 954,414C954,415.1 953.55,416 953,416C952.45,416 952,417.35 952,419C952,420.65 952.45,422 953,422C953.55,422 954,422.81 954,423.8C954,424.79 954.54,426.14 955.2,426.8C956.133,427.733 956.133,428 955.2,428C954.54,428 954,428.9 954,430C954,431.1 954.45,432 955,432C955.55,432 956,434.223 956,436.941C956,439.659 956.45,442.16 957,442.5C957.55,442.84 958,444.216 958,445.559C958,446.902 958.45,448 959,448C959.583,448 960,451.333 960,456C960,460.667 960.417,464 961,464C961.55,464 962,464.9 962,466C962,467.1 962.45,468 963,468C963.556,468 964,470.667 964,474C964,477.333 964.444,480 965,480C965.55,480 966,482.25 966,485C966,487.75 966.45,490 967,490C967.55,490 968,491.35 968,493C968,494.65 968.45,496 969,496C969.582,496 970,499.306 970,503.917C970,508.271 970.411,511.983 970.914,512.167C971.417,512.35 971.957,514.525 972.115,517C972.273,519.475 972.735,521.735 973.143,522.023C973.55,522.31 973.975,526.023 974.087,530.273C974.2,534.523 974.676,538 975.146,538C975.616,538 976,540.25 976,543C976,545.75 976.45,548 977,548C977.55,548 978,550.25 978,553C978,555.75 978.45,558 979,558C979.55,558 980,559.098 980,560.441C980,561.784 980.45,563.16 981,563.5C981.55,563.84 982,565.891 982,568.059C982,570.227 982.45,572 983,572C983.55,572 984,573.251 984,574.779C984,576.411 984.826,578.153 986,579C987.1,579.793 988,581.441 988,582.662C988,583.883 988.45,585.16 989,585.5C989.55,585.84 990,586.954 990,587.976C990,588.997 990.563,590.07 991.25,590.359C992.178,590.749 992.1,591.141 990.944,591.883C989.276,592.954 989.419,600 991.109,600C991.599,600 992,601.35 992,603C992,604.65 992.378,606 992.839,606C994.046,606 996,610.667 996,613.547C996,614.896 996.45,616 997,616C997.55,616 998,618.25 998,621C998,623.75 998.45,626 999,626C999.55,626 1000,626.695 1000,627.545C1000,628.395 1001.12,630.216 1002.5,631.591C1003.88,632.966 1005,634.488 1005,634.974C1005,635.46 1005.75,636.605 1006.66,637.519C1008.07,638.93 1008.11,639.331 1006.91,640.167C1005.83,640.923 1005.79,641.27 1006.75,641.659C1007.44,641.938 1008,642.823 1008,643.625C1008,644.427 1008.9,646.05 1010,647.23C1011.1,648.411 1012,649.967 1012,650.689C1012,651.41 1012.45,652 1013,652C1013.55,652 1014,653.762 1014,655.917C1014,658.071 1014.41,659.983 1014.9,660.167C1015.4,660.35 1015.97,661.625 1016.15,663C1016.35,664.375 1017.29,666.228 1018.25,667.117C1019.21,668.007 1020,669.175 1020,669.712C1020,670.25 1020.9,671.505 1022,672.5C1023.33,673.701 1024,675.58 1024,678.088C1024,680.987 1024.46,682.013 1026,682.5C1027.1,682.849 1028,683.914 1028,684.867C1028,685.82 1028.37,687.027 1028.83,687.55C1029.28,688.072 1030.29,690.525 1031.06,693C1031.84,695.475 1033.72,698.804 1035.24,700.398C1036.76,701.992 1038,703.905 1038,704.648C1038,705.392 1038.45,706 1039,706C1039.55,706 1040,707.35 1040,709C1040,710.65 1040.45,712 1041,712C1041.55,712 1042,712.801 1042,713.779C1042,714.758 1042.9,716.207 1044,717C1045.17,717.847 1046,719.589 1046,721.221C1046,722.749 1046.45,724 1047,724C1047.55,724 1048,725.16 1048,726.578C1048,728.248 1049.33,730.451 1051.78,732.828C1056.13,737.045 1060,742.286 1060,743.947C1060,745.164 1061.43,747.13 1064.25,749.793C1066.18,751.613 1066.82,762 1065,762C1064.45,762 1064,762.9 1064,764C1064,765.333 1063.33,766 1062,766C1060.9,766 1060,766.45 1060,767C1060,767.55 1059.1,768 1058,768C1056.9,768 1056,768.337 1055.99,768.75C1055.98,769.648 1051.14,772 1049.3,772C1048.59,772 1048,772.45 1048,773C1048,773.55 1046.2,774 1044,774C1041.8,774 1040,774.45 1040,775C1040,775.55 1038.45,776 1036.56,776C1034.67,776 1032.84,776.45 1032.5,777C1032.16,777.55 1031.01,778 1029.94,778C1028.87,778 1028,778.45 1028,779C1028,779.55 1026.65,780 1025,780C1022.98,780 1022,780.497 1022,781.525C1022,782.422 1020.76,783.299 1018.98,783.654C1017.32,783.986 1015.72,784.65 1015.42,785.129C1015.12,785.608 1013.59,786 1012,786C1010.42,786 1008.84,786.45 1008.5,787C1008.16,787.55 1007.01,788 1005.94,788C1004.87,788 1004,788.45 1004,789C1004,789.55 1003.1,790 1002,790C1000.9,790 1000,790.45 1000,791C1000,791.55 999.1,792 998,792C996.9,792 996,792.45 996,793C996,793.55 994.902,794 993.559,794C992.216,794 990.84,794.45 990.5,795C990.16,795.55 988.559,796 986.941,796C985.323,796 984,796.45 984,797C984,797.55 983.319,798 982.486,798C981.654,798 980.065,798.563 978.956,799.25C977.295,800.28 976.755,800.235 975.893,799C975.107,797.872 974.722,797.81 974.341,798.75C974.062,799.437 973.07,800 972.137,800C971.205,800 969.793,800.9 969,802C967.996,803.393 966.411,804 963.779,804C961.701,804 960,804.369 960,804.819C960,805.27 957.75,806.251 955,807C952.25,807.749 950,808.73 950,809.181C950,809.631 948.831,810 947.401,810C945.803,810 943.723,811.155 942,813C939.89,815.258 938.308,816 935.599,816C933.619,816 932,816.45 932,817C932,817.55 931.1,818 930,818C928.9,818 928,818.369 928,818.819C928,819.27 925.75,820.251 923,821C920.25,821.749 918,822.73 918,823.181C918,823.631 915.75,824 913,824C910.25,824 908,824.45 908,825C908,825.55 906.902,826 905.559,826C904.216,826 902.84,826.45 902.5,827C902.16,827.55 901.174,828 900.308,828C899.443,828 898.007,828.828 897.117,829.84C896.228,830.852 894.294,831.978 892.82,832.342C891.346,832.705 889.466,833.677 888.641,834.502C887.817,835.326 885.536,836 883.571,836C881.607,836 880,836.45 880,837C880,837.55 879.1,838 878,838C876.9,838 876,838.45 876,839C876,839.55 874.65,840 873,840C871.35,840 870,840.45 870,841C870,841.55 868.65,842 867,842C865.35,842 864,842.45 864,843C864,843.55 862.65,844 861,844C859.35,844 858,844.378 858,844.839C858,846.046 853.333,848 850.453,848C848.667,848 848,848.544 848,850C848,851.7 847.333,852 843.559,852C841.116,852 838.84,852.45 838.5,853C838.16,853.55 836.559,854 834.941,854C833.323,854 832,854.45 832,855C832,855.55 830.749,856 829.221,856C827.589,856 825.847,856.826 825,858C824.207,859.1 822.758,860 821.779,860C820.801,860 820,860.45 820,861C820,861.55 819.1,862 818,862C816.9,862 816,862.45 816,863C816,863.55 814.227,864 812.059,864C809.891,864 807.84,864.45 807.5,865C807.16,865.55 805.784,866 804.441,866C803.098,866 802,866.45 802,867C802,867.55 800.677,868 799.059,868C797.441,868 795.84,868.45 795.5,869C795.16,869.55 793.784,870 792.441,870C791.098,870 790,870.45 790,871C790,871.55 789.1,872 788,872C786.9,872 786,872.45 786,873C786,873.556 783.333,874 780,874C776.667,874 774,874.444 774,875C774,875.55 771.849,876 769.221,876C765.589,876 764.096,876.48 763,878C762.023,879.355 760.411,880 758,880C755.589,880 753.977,880.645 753,882C752.207,883.1 750.758,884 749.779,884C748.667,884 748,884.749 748,886C748,887.1 747.55,888 747,888C746.407,888 746,891.667 746,897C746,902.333 746.407,906 747,906C747.55,906 748,907.35 748,909C748,910.65 747.55,912 747,912C746.403,912 746,915.866 746,921.599C746,930.975 746.07,931.263 749,934C751.492,936.328 752,937.581 752,941.401C752,943.931 752.45,946 753,946C753.55,946 754,945.55 754,945C754,944.45 754.45,944 755,944C755.55,944 756,945.35 756,947C756,948.65 756.45,950 757,950C757.55,950 758,950.801 758,951.779C758,952.758 758.9,954.207 760,955C761.1,955.793 762,957.049 762,957.792C762,959.834 764.588,962 767.027,962C768.221,962 770.459,963.35 772,965C774.566,967.747 775.359,968 781.401,968C785.134,968 788,967.566 788,967C788,966.45 789.94,966 792.311,966C795.241,966 797.311,965.359 798.77,964C800.381,962.499 802.299,962 806.458,962C809.506,962 812,961.55 812,961C812,960.45 813.8,960 816,960C818.2,960 820,959.55 820,959C820,958.45 820.9,958 822,958C823.1,958 824,957.55 824,957C824,956.45 824.9,956 826,956C827.1,956 828,955.55 828,955C828,954.45 829.35,954 831,954C832.65,954 834,953.66 834,953.244C834,952.828 835.35,951.928 837,951.244C838.65,950.56 841.35,949.44 843,948.756C844.65,948.072 846,947.172 846,946.756C846,946.34 847.313,946 848.917,946C850.521,946 851.983,945.662 852.167,945.25C852.95,943.487 861.066,940 864.386,940C866.374,940 868,939.55 868,939C868,938.45 869.169,938 870.599,938C872.197,938 874.277,936.845 876,935C877.723,933.155 879.803,932 881.401,932C882.831,932 884,931.646 884,931.214C884,930.781 886.742,930.351 890.094,930.259C893.445,930.166 896.707,929.662 897.344,929.14C897.98,928.618 900.075,928.046 902,927.869C903.925,927.692 906.228,926.75 907.117,925.774C908.221,924.563 910.206,924 913.367,924C915.915,924 918,923.586 918,923.079C918,921.942 928.483,921.059 949.75,920.406C959.037,920.121 966,919.498 966,918.953C966,918.429 968.25,918 971,918C973.75,918 976,917.57 976,917.045C976,916.492 983.268,915.899 993.25,915.638C1002.74,915.389 1012.64,914.874 1015.25,914.492C1018.46,914.024 1020,914.156 1020,914.899C1020,915.514 1021.74,916 1023.94,916C1026.11,916 1028.16,916.45 1028.5,917C1028.87,917.601 1035.68,918 1045.56,918C1055.85,918 1062,918.374 1062,919C1062,919.571 1065,920 1069,920C1073,920 1076,920.429 1076,921C1076,921.55 1077.35,922 1079,922C1080.65,922 1082,922.45 1082,923C1082,923.556 1084.67,924 1088,924C1091.33,924 1094,924.444 1094,925C1094,925.55 1096.25,926 1099,926C1101.75,926 1104,926.45 1104,927C1104,927.55 1104.9,928 1106,928C1107.1,928 1108,928.45 1108,929C1108,929.55 1109.35,930 1111,930C1112.65,930 1114,929.55 1114,929C1114,927.152 1119.52,927.939 1121,930C1121.79,931.1 1123.24,932 1124.22,932C1125.2,932 1126,932.395 1126,932.879C1126,933.362 1127.35,934.317 1129,935C1130.65,935.683 1132,936.638 1132,937.121C1132,937.605 1133.8,938 1136,938C1138.2,938 1140,938.45 1140,939C1140,939.55 1140.9,940 1142,940C1143.1,940 1144,940.45 1144,941C1144,941.55 1145.7,942 1147.78,942C1150.41,942 1152,942.607 1153,944C1153.85,945.174 1155.59,946 1157.22,946C1158.75,946 1160,946.45 1160,947C1160,947.55 1160.8,948 1161.78,948C1162.76,948 1164.21,948.9 1165,950C1165.85,951.174 1167.59,952 1169.22,952C1170.75,952 1172,952.45 1172,953C1172,953.55 1172.9,954 1174,954C1175.1,954 1176,954.45 1176,955C1176,955.55 1176.8,956 1177.78,956C1178.76,956 1180.15,956.818 1180.87,957.818C1181.75,959.041 1183.68,959.713 1186.77,959.873C1189.86,960.033 1191.91,960.749 1193.05,962.055C1193.98,963.125 1195.92,964 1197.37,964C1198.82,964 1200,964.45 1200,965C1200,965.55 1200.8,966 1201.78,966C1202.76,966 1204.21,966.9 1205,968C1205.79,969.1 1207.24,970 1208.22,970C1209.2,970 1210,970.45 1210,971C1210,971.55 1211.17,972 1212.59,972C1214.35,972 1215.36,972.649 1215.71,974C1216.08,975.417 1217.07,976 1219.12,976C1220.7,976 1222,976.45 1222,977C1222,977.55 1222.8,978 1223.78,978C1224.76,978 1226.21,978.9 1227,980C1227.79,981.1 1229.24,982 1230.22,982C1231.2,982 1232,982.353 1232,982.784C1232,983.216 1233.36,984.373 1235.03,985.357C1236.69,986.34 1239.15,988.237 1240.48,989.573C1242.94,992.035 1246,992.825 1246,991C1246,990.45 1246.45,990 1247,990C1247.55,990 1248,990.9 1248,992C1248,993.251 1248.67,994 1249.78,994C1250.76,994 1252.21,994.9 1253,996C1253.8,997.103 1255.59,998 1257,998C1258.41,998 1260.2,998.897 1261,1000C1261.79,1001.1 1263.24,1002 1264.22,1002C1265.2,1002 1266,1002.45 1266,1003C1266,1003.55 1266.9,1004 1268,1004C1269.14,1004 1270,1004.67 1270,1005.55C1270,1007.33 1274.37,1012 1276.03,1012C1277.66,1012 1280,1014.61 1280,1016.43C1280,1017.29 1280.71,1018 1281.57,1018C1283.59,1018 1286,1020.41 1286,1022.43C1286,1023.33 1286.85,1024 1288,1024C1289.1,1024 1290,1024.45 1290,1025C1290,1025.55 1290.86,1026 1291.92,1026C1292.97,1026 1294.06,1026.56 1294.34,1027.25C1294.73,1028.21 1295.08,1028.17 1295.83,1027.09C1296.67,1025.88 1297.05,1025.91 1298.41,1027.27C1299.28,1028.14 1300,1029.37 1300,1030C1300,1031.43 1302.07,1033.39 1304.02,1033.83C1304.84,1034 1305.65,1034.57 1305.83,1035.08C1306.02,1035.58 1306.84,1036 1307.65,1036C1309.6,1036 1312,1038.44 1312,1040.43C1312,1041.29 1312.67,1042 1313.49,1042C1315.05,1042 1321,1047.67 1321,1049.15C1321,1049.62 1321.46,1050 1322.02,1050C1322.58,1050 1325.52,1052.47 1328.54,1055.5C1331.57,1058.53 1334.48,1061 1335.02,1061C1335.56,1061 1336,1061.67 1336,1062.5C1336,1063.33 1336.42,1064 1336.93,1064C1337.45,1064 1338.15,1064.91 1338.51,1066.03C1338.87,1067.15 1340.25,1069.15 1341.58,1070.49C1342.91,1071.82 1344,1073.61 1344,1074.45C1344,1075.31 1344.71,1076 1345.57,1076C1347.39,1076 1349.33,1077.75 1350.28,1080.25C1350.64,1081.21 1351.87,1082 1353,1082C1354.13,1082 1355.34,1082.79 1355.67,1083.75C1356.01,1084.71 1358.02,1087.14 1360.14,1089.13C1362.32,1091.19 1364,1093.71 1364,1094.94C1364,1096.14 1364.45,1096.84 1365,1096.5C1365.55,1096.16 1366,1096.36 1366,1096.94C1366,1097.52 1366.9,1098 1368,1098C1369.33,1098 1370,1098.67 1370,1100C1370,1101.1 1369.55,1102 1369,1102C1368.45,1102 1368,1102.45 1368,1103C1368,1104.46 1373.75,1104.23 1374.28,1102.75C1374.54,1102.02 1375.1,1101.87 1375.61,1102.39C1376.13,1102.9 1375.98,1103.46 1375.25,1103.72C1374.56,1103.97 1374,1104.99 1374,1106C1374,1107.01 1374.56,1108.06 1375.25,1108.34C1376.22,1108.73 1376.19,1109.07 1375.12,1109.81C1373.08,1111.24 1374.58,1112.8 1377.48,1112.25C1379.84,1111.8 1380,1112.02 1380,1115.88C1380,1118.15 1380.45,1120 1381,1120C1381.55,1120 1382,1120.9 1382,1122C1382,1123.54 1382.67,1124 1384.92,1124C1386.52,1124 1388.06,1124.56 1388.34,1125.25C1388.72,1126.2 1389.1,1126.14 1389.87,1125.03C1390.43,1124.22 1391.25,1123.92 1391.7,1124.37C1392.14,1124.81 1391.49,1125.99 1390.25,1127C1387.5,1129.23 1387.41,1130 1389.92,1130C1390.97,1130 1392.04,1130.56 1392.28,1131.25C1392.59,1132.1 1393.38,1131.78 1394.73,1130.25C1397.51,1127.13 1398,1127.4 1398,1132C1398,1134.2 1397.55,1136 1397,1136C1395.56,1136 1395.77,1139.73 1397.25,1140.42C1398.25,1140.88 1398.25,1141.12 1397.25,1141.58C1395.31,1142.49 1395.78,1144 1398,1144C1399.1,1144 1400,1143.55 1400,1143C1400,1142.45 1400.9,1142 1402,1142C1403.1,1142 1404,1141.55 1404,1141C1404,1140.45 1403.55,1140 1403,1140C1402.4,1140 1402,1136.14 1402,1130.43C1402,1119.96 1401.14,1118 1396.57,1118C1394.67,1118 1394,1117.48 1394,1116C1394,1113.8 1395.59,1113.27 1396.25,1115.24C1396.55,1116.14 1397.12,1116.03 1398.33,1114.81C1400.14,1113.01 1400.63,1108 1399,1108C1398.45,1108 1398,1106.65 1398,1105C1398,1103.35 1397.55,1102 1397,1102C1396.45,1102 1396,1101.1 1396,1100C1396,1098.9 1395.58,1098 1395.06,1098C1394.54,1098 1393.94,1096.09 1393.72,1093.75C1393.4,1090.22 1393.2,1089.88 1392.55,1091.75C1391.63,1094.39 1391.33,1094.47 1389.43,1092.57C1387.35,1090.49 1387.66,1088 1390,1088C1392.49,1088 1392.63,1086.33 1390.21,1085.57C1388.45,1085.01 1386,1078.25 1386,1073.99C1386,1072.89 1385.36,1072 1384.59,1072C1382.12,1072 1376,1065.24 1376,1062.52C1376,1061.13 1376.45,1060 1377,1060C1377.55,1060 1378,1059.1 1378,1058C1378,1056.85 1377.33,1056 1376.43,1056C1374.41,1056 1372,1053.59 1372,1051.57C1372,1050.67 1371.15,1050 1370,1050C1368.67,1050 1368,1049.33 1368,1048C1368,1046.85 1367.33,1046 1366.43,1046C1364.41,1046 1362,1043.59 1362,1041.57C1362,1040.71 1361.55,1040 1361,1040C1360.45,1040 1360,1038.75 1360,1037.22C1360,1035.59 1359.17,1033.85 1358,1033C1356.9,1032.21 1356,1030.95 1356,1030.21C1356,1028.56 1353.57,1026 1352,1026C1350.26,1026 1348.41,1023.78 1347.66,1020.77C1347.29,1019.29 1345.86,1016.95 1344.49,1015.58C1343.12,1014.21 1342,1012.59 1342,1011.97C1342,1011.35 1340.2,1009.11 1338,1007C1335.8,1004.89 1334,1002.63 1334,1001.98C1334,1001.33 1332.65,999.541 1331,998C1329.35,996.459 1328,994.478 1328,993.599C1328,992.667 1327.17,992 1326,992C1324.67,992 1324,991.333 1324,990C1324,988.9 1323.55,988 1323,988C1322.45,988 1322,987.296 1322,986.435C1322,985.574 1319.75,982.679 1317,980C1314.25,977.321 1312,974.426 1312,973.565C1312,972.704 1311.63,972 1311.17,972C1310.71,972 1309.7,970.763 1308.92,969.25C1307,965.523 1305.44,964 1303.57,964C1302.67,964 1302,963.152 1302,962C1302,960.9 1301.55,960 1301,960C1300.45,960 1300,959.1 1300,958C1300,956.667 1299.33,956 1298,956C1296.44,956 1296,955.333 1296,953C1296,950.918 1295.51,950 1294.4,950C1293.52,950 1291.54,948.65 1290,947C1288.46,945.35 1286.48,944 1285.6,944C1284.55,944 1284,943.12 1284,941.455C1284,938.89 1280.05,934 1277.97,934C1276.43,934 1274,931.427 1274,929.792C1274,929.049 1273.1,927.793 1272,927C1270.9,926.207 1270,924.938 1270,924.18C1270,923.423 1268.74,921.609 1267.19,920.151C1265.64,918.693 1264.08,916.712 1263.72,915.75C1263.36,914.787 1262.54,914 1261.9,914C1260.67,914 1257,910.217 1257,908.953C1257,907.484 1251.16,902 1249.6,902C1248.72,902 1248,901.293 1248,900.429C1248,898.408 1245.59,896 1243.57,896C1242.71,896 1242,895.281 1242,894.401C1242,893.522 1240.74,891.609 1239.19,890.151C1237.64,888.693 1236.08,886.712 1235.72,885.75C1235.36,884.788 1234.37,884 1233.53,884C1232.67,884 1232,883.129 1232,882C1232,880.667 1231.33,880 1230,880C1228.67,880 1228,879.333 1228,878C1228,876.759 1227.33,876 1226.24,876C1225.26,876 1223.91,874.703 1223.19,873.058C1222.47,871.44 1220.56,869.53 1218.94,868.814C1217.32,868.098 1216,866.911 1216,866.177C1216,865.444 1214.28,863.191 1212.18,861.172C1210.08,859.152 1207.56,856.263 1206.57,854.75C1205.58,853.237 1204.15,852 1203.38,852C1202.62,852 1202,851.1 1202,850C1202,848.878 1201.33,848 1200.48,848C1198.76,848 1186,835.619 1186,833.947C1186,832.338 1183.38,830 1181.57,830C1180.71,830 1180,829.293 1180,828.429C1180,826.408 1177.59,824 1175.57,824C1174.41,824 1174,822.977 1174,820.083C1174,817.856 1173.46,815.973 1172.75,815.718C1171.9,815.414 1172.22,814.625 1173.75,813.267C1175.01,812.149 1176,810.103 1176,808.633C1176,806.776 1176.52,806 1177.78,806C1178.76,806 1180.21,805.1 1181,804C1181.79,802.9 1183.2,802 1184.14,802C1185.07,802 1186.43,800.65 1187.16,799C1187.89,797.35 1188.83,796 1189.24,796C1189.66,796 1190,795.371 1190,794.601C1190,793.832 1192.25,790.905 1195,788.096C1197.75,785.288 1200,782.317 1200,781.495C1200,780.673 1200.71,780 1201.57,780C1203.59,780 1206,777.592 1206,775.571C1206,774.707 1206.71,774 1207.57,774C1209.75,774 1212,771.537 1212,769.153C1212,766.106 1213.07,764 1214.61,764C1215.57,764 1216,762.752 1216,760C1216,756.222 1215.83,756 1213,756C1210.67,756 1210,755.556 1210,754C1210,752.333 1209.33,752 1206,752C1202.67,752 1202,751.667 1202,750C1202,748.387 1201.33,748 1198.56,748C1196.67,748 1194.84,747.55 1194.5,747C1194.16,746.45 1191.66,746 1188.94,746C1186.22,746 1184,745.55 1184,745C1184,744.45 1183.1,744 1182,744C1180.9,744 1180,743.55 1180,743C1180,741.593 1174.65,741.751 1173.2,743.2C1172.27,744.133 1172,744.133 1172,743.2C1172,742.32 1168,742 1157,742C1147.67,742 1142,742.378 1142,743C1142,743.55 1139.75,744 1137,744C1134.25,744 1132,744.401 1132,744.891C1132,746.121 1126.16,747.097 1115.45,747.655L1106.41,748.128L1104.96,745.314C1104.16,743.766 1102.72,741.772 1101.76,740.883C1100.79,739.993 1100,738.531 1100,737.633C1100,736.494 1099.11,736 1097.07,736C1094.98,736 1093.94,735.403 1093.48,733.94C1093.12,732.807 1090.84,729.894 1088.41,727.466C1085.99,725.039 1084,722.366 1084,721.526C1084,720.687 1083.55,720 1083,720C1082.45,720 1082,719.41 1082,718.689C1082,717.967 1081.1,716.411 1080,715.23C1078.9,714.05 1078,712.489 1078,711.763C1078,711.036 1077.1,709.793 1076,709C1074.9,708.207 1074,706.983 1074,706.28C1074,705.577 1072.2,703.148 1070,700.881C1067.8,698.614 1066,696.237 1066,695.6C1066,694.963 1065.1,693.793 1064,693C1062.9,692.207 1062,690.758 1062,689.779C1062,688.801 1061.55,688 1061,688C1060.45,688 1060,687.199 1060,686.221C1060,685.242 1059.1,683.793 1058,683C1056.9,682.207 1056,680.857 1056,680C1056,679.143 1055.1,677.793 1054,677C1052.83,676.153 1052,674.411 1052,672.779C1052,671.251 1051.55,670 1051,670C1050.45,670 1050,668.854 1050,667.452C1050,665.729 1048.38,663.288 1045,659.905C1041.18,656.09 1040,654.182 1040,651.854C1040,649.753 1039.07,647.929 1037,646C1035.15,644.277 1034,642.197 1034,640.599C1034,639.169 1033.55,638 1033,638C1032.45,638 1032,637.1 1032,636C1032,634.9 1031.55,634 1031,634C1030.45,634 1030,633.199 1030,632.221C1030,631.242 1029.1,629.793 1028,629C1026.9,628.207 1026,626.758 1026,625.779C1026,624.801 1025.55,624 1025,624C1024.45,624 1024,623.199 1024,622.221C1024,621.242 1023.1,619.793 1022,619C1020.53,617.941 1020,616.411 1020,613.237C1020,610.299 1019.36,608.23 1018,606.77C1016.9,605.589 1016,603.583 1016,602.311C1016,601.04 1015.55,600 1015,600C1014.45,600 1014,598.452 1014,596.559C1014,594.666 1013.55,592.84 1013,592.5C1012.45,592.16 1012,590.135 1012,588C1012,585.865 1011.55,583.84 1011,583.5C1010.45,583.16 1010,581.883 1010,580.662C1010,579.441 1009.1,577.793 1008,577C1006.83,576.153 1006,574.411 1006,572.779C1006,571.251 1005.55,570 1005,570C1004.45,570 1004,567.75 1004,565C1004,562.25 1003.55,560 1003,560C1002.45,560 1002,558.65 1002,557C1002,555.35 1001.55,554 1001,554C1000.45,554 1000,552.65 1000,551C1000,549.35 999.55,548 999,548C998.45,548 998,546.452 998,544.559C998,542.666 997.55,540.84 997,540.5C996.45,540.16 996,538.146 996,536.024C996,533.903 995.6,532.017 995.111,531.833C994.182,531.485 993.159,526.155 992.314,517.25C992.039,514.362 991.407,512 990.907,512C990.408,512 990,510.452 990,508.559C990,506.666 989.55,504.84 989,504.5C988.45,504.16 988,502.109 988,499.941C988,497.773 987.55,496 987,496C986.45,496 986,493.75 986,491C986,488.25 985.55,486 985,486C984.444,486 984,483.333 984,480C984,476.667 983.556,474 983,474C982.45,474 982,473.1 982,472C982,470.9 981.55,470 981,470C980.45,470 980,469.137 980,468.083C980,467.029 979.438,465.938 978.75,465.659C977.778,465.265 977.802,464.941 978.857,464.201C979.805,463.536 979.88,463.044 979.107,462.566C978.498,462.19 978,460.109 978,457.941C978,455.773 977.55,454 977,454C976.408,454 976,450.353 976,445.059C976,440.141 975.55,435.84 975,435.5C974.45,435.16 974,433.784 974,432.441C974,431.098 973.55,430 973,430C972.407,430 972,426.333 972,421C972,415.667 971.593,412 971,412C969.516,412 969.789,409.068 971.426,407.431C972.21,406.647 973.56,406.278 974.426,406.61C975.502,407.023 976.017,406.627 976.052,405.357C976.099,403.704 976.277,403.747 977.674,405.75C978.555,407.013 980.288,408 981.622,408C982.93,408 984,408.45 984,409C984,409.55 985.8,410 988,410C990.2,410 992,410.45 992,411C992,411.55 992.9,412 994,412C995.152,412 996,412.667 996,413.571C996,416.926 1001.26,419.591 1002.28,416.75C1002.54,416.023 1003.1,415.871 1003.61,416.387C1004.13,416.903 1003.98,417.461 1003.25,417.72C1000.33,418.762 1002.37,420 1007,420C1010.88,420 1012,420.352 1012,421.571C1012,423.568 1014.4,426 1016.37,426C1017.2,426 1018.16,426.45 1018.5,427C1018.84,427.55 1020.22,428 1021.56,428C1022.9,428 1024,428.45 1024,429C1024,429.55 1025.1,430 1026.45,430C1029.33,430 1034,431.954 1034,433.161C1034,433.622 1034.9,434 1036,434C1037.1,434 1038,434.45 1038,435C1038,435.55 1039.35,436 1041,436C1042.65,436 1044,436.394 1044,436.875C1044,437.356 1045.3,438.009 1046.88,438.326C1048.46,438.643 1050.46,439.599 1051.31,440.451C1053.05,442.188 1056,442.533 1056,441C1056,439.191 1057.76,439.957 1058.29,442C1058.6,443.173 1059.65,444 1060.85,444C1061.97,444 1063.16,444.45 1063.5,445C1063.84,445.55 1065.89,446 1068.06,446C1070.23,446 1072,446.45 1072,447C1072,447.55 1074.25,448 1077,448C1079.75,448 1082,447.55 1082,447C1082,446.45 1083.01,445.993 1084.25,445.985C1086.07,445.972 1086.21,445.784 1085,445C1083.86,444.264 1084.28,444.027 1086.75,444.015C1089.34,444.003 1090,444.407 1090,446C1090,447.251 1090.67,448 1091.78,448C1092.76,448 1094.21,447.1 1095,446C1095.79,444.9 1097.13,444 1097.98,444C1098.89,444 1100.02,442.392 1100.76,440.016C1102.26,435.205 1102.36,432 1101,432C1100.42,432 1100,428.667 1100,424C1100,419.333 1099.58,416 1099,416C1098.45,416 1098,413.75 1098,411C1098,408.25 1097.55,406 1097,406C1096.45,406 1096,404.2 1096,402C1096,399.8 1095.55,398 1095,398C1094.45,398 1094,395.75 1094,393C1094,390.25 1093.55,388 1093,388C1092.45,388 1092,386.2 1092,384C1092,380.667 1091.67,380 1090,380C1088.27,380 1088,379.333 1088,375C1088,372.25 1087.62,370 1087.16,370C1086,370 1084,365.373 1084,362.674C1084,361.446 1083.1,359.793 1082,359C1080.83,358.153 1080,356.411 1080,354.779C1080,353.251 1079.66,351.996 1079.25,351.992C1078.35,351.983 1076,347.14 1076,345.301C1076,344.585 1075.1,344 1074,344C1072.33,344 1072,343.333 1072,340C1072,336.667 1071.67,336 1070,336C1068.44,336 1068,335.333 1068,333C1068,331.35 1067.55,330 1067,330C1066.45,330 1066,329.1 1066,328C1066,326.863 1065.33,326 1064.45,326C1063.61,326 1061.74,324.83 1060.31,323.399C1058.18,321.276 1057.96,320.62 1059.1,319.823C1060.18,319.072 1060.21,318.731 1059.25,318.341C1058.56,318.062 1058,317.161 1058,316.338C1058,315.516 1056.2,313.114 1054,311C1051.8,308.886 1050,306.447 1050,305.578C1050,304.212 1047.59,303.433 1044.75,303.882C1044.34,303.947 1044,303.1 1044,302C1044,300.9 1043.55,300 1043,300C1042.45,300 1042,299.415 1042,298.699C1042,296.347 1039.53,292.016 1038.18,292.008C1036.37,291.997 1034,289.482 1034,287.571C1034,286.707 1033.29,286 1032.42,286C1031.55,286 1029.11,284.2 1027,282C1024.89,279.8 1022.63,278 1021.98,278C1021.33,278 1019.54,276.65 1018,275C1016.46,273.35 1014.75,272 1014.2,272C1013.65,272 1010.9,269.75 1008.1,267C1005.29,264.25 1002.32,262 1001.5,262C1000.67,262 1000,261.55 1000,261C1000,260.45 998.2,260 996,260C992.667,260 992,259.667 992,258C992,256.373 991.333,256 988.422,256C985.554,256 984.08,255.205 981,252C977.92,248.795 976.446,248 973.578,248C971.61,248 970,247.55 970,247C970,246.45 969.1,246 968,246C966.9,246 966,245.55 966,245C966,244.45 964.2,244 962,244C959.8,244 958,243.55 958,243C958,242.45 957.1,242 956,242C954.9,242 954,241.55 954,241C954,240.45 952.2,240 950,240C947.8,240 946,239.55 946,239C946,238.45 944.65,238 943,238C941.35,238 940,237.55 940,237C940,236.45 939.319,236 938.486,236C937.654,236 936.02,235.438 934.856,234.75C933.162,233.75 932.648,233.75 932.286,234.75C931.75,236.23 928,236.449 928,235C928,234.417 924.667,234 920,234C915.25,234 912,234.413 912,235.016C912,235.575 910.65,235.929 909,235.803C907.251,235.67 906,235.008 906,234.216C906,232.378 903.502,230 901.571,230C900.707,230 900,229.55 900,229C900,227.659 896.262,227.715 895.813,229.062C895.565,229.805 894.637,229.813 892.729,229.087C890.999,228.429 890,228.406 890,229.025C890,229.561 887.75,230 885,230C882.25,230 880,229.55 880,229C880,228.417 876.667,228 872,228C867.333,228 864,228.417 864,229M938,297.188C932.337,299.571 930.43,300.567 929.088,301.841C927.872,302.995 927.872,303.318 929.088,304.167C930.171,304.923 930.209,305.27 929.25,305.659C927.297,306.452 927.729,310 929.779,310C930.758,310 932.207,310.9 933,312C933.793,313.1 935.023,314 935.734,314C938.877,314 946,319.866 946,322.455C946,323.554 947.01,324 949.498,324C952.13,324 953.924,324.876 956.748,327.542C958.811,329.49 961.625,331.362 963,331.702C964.375,332.042 966.228,333.148 967.117,334.16C968.007,335.172 969.289,336 969.966,336C970.643,336 972.391,337.27 973.849,338.823C975.307,340.376 978.638,342.274 981.25,343.042C983.862,343.809 986,344.788 986,345.218C986,345.648 987.35,346 989,346C990.65,346 992.004,346.337 992.008,346.75C992.017,347.648 996.86,350 998.699,350C999.415,350 1000,350.45 1000,351C1000,351.55 1001.8,352 1004,352C1007.33,352 1008,352.333 1008,354C1008,355.556 1008.67,356 1011,356C1012.65,356 1014,356.45 1014,357C1014,357.55 1015.35,358 1017,358C1018.65,358 1020,358.45 1020,359C1020,359.55 1021.25,360 1022.78,360C1024.41,360 1026.15,360.826 1027,362C1027.79,363.1 1029.24,364 1030.22,364C1031.2,364 1032,364.45 1032,365C1032,365.55 1033.35,366 1035,366C1036.65,366 1038,366.45 1038,367C1038,367.55 1040.25,368 1043,368C1047.33,368 1048,367.733 1048,366C1048,364.9 1048.45,364 1049,364C1049.56,364 1050,361.333 1050,358C1050,352.667 1049.78,352 1048,352C1046.85,352 1046,351.333 1046,350.429C1046,348.622 1043.66,346 1042.05,346C1040.38,346 1030,335.251 1030,333.522C1030,332.685 1029.29,332 1028.43,332C1026.41,332 1024,329.592 1024,327.571C1024,326.707 1023.55,326 1023,326C1022.45,326 1022,326.45 1022,327C1022,329.012 1018.73,327.922 1016,325C1014.28,323.155 1012.2,322 1010.6,322C1009.17,322 1008,321.55 1008,321C1008,320.45 1006.86,320 1005.47,320C1003.98,320 1002.66,319.279 1002.27,318.253C1001.08,315.172 997.168,312 994.545,312C992.667,312 992,311.476 992,310C992,308.9 991.55,308 991,308C990.45,308 990,308.45 990,309C990,309.55 988.299,310 986.221,310C983.589,310 982.004,309.393 981,308C980.207,306.9 978.758,306 977.779,306C976.801,306 976,305.55 976,305C976,304.45 974.65,304 973,304C971.35,304 970,303.55 970,303C970,302.45 968.515,302 966.7,302C964.885,302 962.841,301.441 962.158,300.758C961.17,299.77 960.747,299.791 960.086,300.862C959.448,301.893 958.774,301.949 957.193,301.103C956.059,300.496 953.527,300 951.566,300C949.605,300 948,299.55 948,299C948,298.45 947.1,298 946,298C944.9,298 944,297.55 944,297C944,295.736 941.244,295.822 938,297.188M539,404C538.207,405.1 536.968,406 536.246,406C535.524,406 533.436,407.498 531.605,409.328C528.51,412.423 527.828,414.163 526.343,422.75C526.034,424.538 525.38,426 524.891,426C524.401,426 524,426.9 524,428C524,429.1 523.55,430 523,430C522.45,430 522,430.9 522,432C522,433.1 521.55,434 521,434C520.45,434 520,435.8 520,438C520,440.2 519.55,442 519,442C518.45,442 518,443.35 518,445C518,446.65 517.55,448 517,448C516.444,448 516,450.667 516,454C516,457.333 515.556,460 515,460C514.45,460 514,460.9 514,462C514,463.1 513.55,464 513,464C512.417,464 512,467.333 512,472C512,476.667 511.583,480 511,480C510.45,480 510,480.695 510,481.545C510,483.789 505.44,488 503.01,488C500.311,488 496,485.162 496,483.385C496,482.623 495.55,482 495,482C494.45,482 494,481.1 494,480C494,478.9 493.55,478 493,478C492.45,478 492,476.299 492,474.221C492,471.589 491.393,470.004 490,469C488.9,468.207 488,466.857 488,466C488,465.143 487.1,463.793 486,463C484.9,462.207 484,460.951 484,460.208C484,458.377 481.499,456 479.571,456C478.667,456 478,455.152 478,454C478,451.577 473.658,451.199 471.429,453.429C469.813,455.044 469.466,462 471,462C471.593,462 472,465.667 472,471C472,476.333 472.407,480 473,480C473.55,480 474,480.801 474,481.779C474,482.758 474.9,484.207 476,485C477.174,485.847 478,487.589 478,489.221C478,490.749 478.45,492 479,492C479.55,492 480,493.701 480,495.779C480,498.411 480.607,499.996 482,501C483.1,501.793 484,503.242 484,504.221C484,505.199 484.45,506 485,506C485.55,506 486,506.9 486,508C486,509.1 486.45,510 487,510C487.55,510 488,510.801 488,511.779C488,512.758 488.9,514.207 490,515C491.393,516.004 492,517.589 492,520.221C492,522.299 492.401,524 492.891,524C494.005,524 495.009,529.352 495.657,538.75C495.991,543.58 495.798,546 495.079,546C494.486,546 494,547.35 494,549C494,550.65 494.45,552 495,552C495.55,552 496,553.35 496,555C496,556.65 495.55,558 495,558C494.444,558 494,560.667 494,564C494,567.333 493.556,570 493,570C492.392,570 492,574.48 492,581.441C492,587.99 491.572,593.146 491,593.5C490.436,593.849 490,598.699 490,604.625C490,610.595 489.506,616.054 488.857,617.268C487.999,618.871 487.999,619.5 488.857,619.786C489.666,620.055 490,626.279 490,641.083C490,654.361 490.365,662 491,662C491.55,662 492,664.25 492,667C492,669.75 492.45,672 493,672C493.55,672 494,673.098 494,674.441C494,675.784 494.45,677.16 495,677.5C495.55,677.84 496,681.241 496,685.059C496,688.877 496.337,692.004 496.75,692.008C498.044,692.021 500,697.253 500,700.699C500,702.515 500.45,704 501,704C501.55,704 502,705.35 502,707C502,708.65 502.45,710 503,710C503.55,710 504,710.9 504,712C504,713.1 504.45,714 505,714C505.55,714 506,714.9 506,716C506,717.1 506.45,718 507,718C507.55,718 508,720.25 508,723C508,725.75 508.45,728 509,728C509.55,728 510,729.508 510,731.352C510,733.712 510.888,735.632 513,737.843C514.65,739.569 516,741.661 516,742.491C516,743.321 516.45,744 517,744C517.55,744 518,744.9 518,746C518,747.1 518.45,748 519,748C519.55,748 520,748.9 520,750C520,751.333 520.667,752 522,752C523.251,752 524,752.667 524,753.779C524,754.758 524.9,756.207 526,757C527.1,757.793 528,759.242 528,760.221C528,761.199 528.683,762 529.519,762C531.496,762 544,774.504 544,776.481C544,777.317 544.719,778 545.599,778C546.478,778 548.459,779.35 550,781C551.723,782.845 553.803,784 555.401,784C556.831,784 558,784.45 558,785C558,785.55 559.8,786 562,786C564.2,786 566,786.45 566,787C566,787.55 567.35,788 569,788C570.65,788 572,787.55 572,787C572,786.45 573.157,786 574.571,786C577.311,786 579.198,784.594 580.275,781.75C580.639,780.788 581.461,780 582.102,780C583.566,780 587.997,774.927 587.999,773.25C587.999,772.563 588.45,772 589,772C589.55,772 590,771.29 590,770.422C590,769.553 591.688,767.191 593.75,765.172C595.813,763.152 598.139,760.263 598.919,758.75C599.699,757.237 600.712,756 601.169,756C601.626,756 602,755.1 602,754C602,752.9 602.394,752 602.875,752C603.356,752 604.009,750.704 604.326,749.121C604.643,747.537 605.599,745.544 606.451,744.692C607.303,743.84 608,742.436 608,741.571C608,740.707 608.45,740 609,740C609.55,740 610,739.1 610,738C610,736.9 610.45,736 611,736C611.55,736 612,735.199 612,734.221C612,733.242 612.9,731.793 614,731C615.1,730.207 616,728.758 616,727.779C616,726.801 616.45,726 617,726C617.55,726 618,724.65 618,723C618,721.35 618.45,720 619,720C619.55,720 620,719.199 620,718.221C620,717.242 620.9,715.793 622,715C623.1,714.207 624,712.795 624,711.863C624,710.93 624.337,710.017 624.75,709.833C625.163,709.65 626.583,707.362 627.907,704.75C629.231,702.138 630.694,700 631.157,700C631.621,700 632,699.1 632,698C632,696.9 632.45,696 633,696C633.55,696 634,695.1 634,694C634,692.9 634.45,692 635,692C635.55,692 636,690.2 636,688C636,685.8 636.352,684 636.782,684C637.212,684 638.194,681.862 638.964,679.25C640.59,673.736 642.029,672 644.974,672C648.667,672 651.959,676.33 652.152,681.444C652.247,683.95 652.589,686.004 652.912,686.008C653.807,686.02 656,691.156 656,693.239C656,694.251 656.9,696.844 658,699C659.1,701.156 660,703.613 660,704.46C660,705.307 660.45,706 661,706C661.55,706 662,707.16 662,708.578C662,710.26 663.391,712.535 666,715.117C668.511,717.603 670,719.994 670,721.539C670,722.892 670.45,724 671,724C671.55,724 672,725.251 672,726.779C672,728.411 672.826,730.153 674,731C675.1,731.793 676,733.242 676,734.221C676,735.199 676.45,736 677,736C677.55,736 678,737.169 678,738.599C678,740.197 679.155,742.277 681,744C682.65,745.541 684,747.303 684,747.915C684,749.608 700.755,766 702.486,766C703.333,766 704,766.881 704,768C704,769.76 704.667,770 709.545,770C714.1,770 715.53,769.561 717.545,767.545C718.895,766.195 720,764.045 720,762.766C720,761.488 720.9,759.793 722,759C723.174,758.153 724,756.411 724,754.779C724,753.251 724.45,752 725,752C725.55,752 726,750.688 726,749.083C726,747.479 726.426,746.017 726.946,745.833C727.467,745.65 728.001,743.362 728.133,740.75C728.265,738.138 728.74,736 729.187,736C729.634,736 730,735.1 730,734C730,732.9 730.45,732 731,732C731.55,732 732,729.777 732,727.059C732,724.341 732.45,721.84 733,721.5C733.55,721.16 734,718.884 734,716.441C734,713.998 734.45,712 735,712C735.588,712 736,708.52 736,703.559C736,698.916 736.45,694.84 737,694.5C737.558,694.155 738,689.49 738,683.941C738,677.98 738.4,674 739,674C739.552,674 740,671.393 740,668.18C740,663.202 740.365,662.043 742.528,660.163L745.056,657.965L747.528,660.437C748.888,661.797 750,663.605 750,664.455C750,665.305 750.45,666 751,666C751.55,666 752,666.9 752,668C752,669.1 752.45,670 753,670C753.55,670 754,670.873 754,671.941C754,673.009 754.45,674.16 755,674.5C755.55,674.84 756,676.216 756,677.559C756,679.333 756.546,680 758,680C759.1,680 760,680.45 760,681C760,681.55 761.278,682 762.841,682C765.481,682 765.772,681.597 766.96,676.29C767.889,672.137 767.932,670.477 767.119,670.206C766.468,669.989 766,667.449 766,664.137C766,659.589 765.597,658.151 764,657C762.295,655.771 762,654.411 762,647.779C762,643.501 761.581,640 761.069,640C760.556,640 759.899,635.837 759.608,630.75C759.317,625.663 758.793,618.628 758.444,615.118C757.968,610.331 758.145,608.5 759.155,607.792C760.204,607.056 760.225,606.736 759.25,606.341C758.563,606.062 758,604.521 758,602.917C758,601.313 757.55,600 757,600C756.4,600 756,596 756,590C756,584 755.6,580 755,580C754.45,580 754,578.2 754,576C754,573.8 754.388,572 754.862,572C755.337,572 755.484,570.763 755.189,569.25C754.894,567.737 754.493,550.75 754.297,531.5C754.079,510.117 753.563,496.37 752.97,496.167C752.378,495.963 752,486.119 752,470.917C752,454.972 751.64,446 751,446C750.45,446 750,445.1 750,444C750,442.9 749.55,442 749,442C748.45,442 748,441.199 748,440.221C748,439.242 747.1,437.793 746,437C744.9,436.207 744,434.758 744,433.779C744,432.801 743.55,432 743,432C742.417,432 742,428.667 742,424C742,419.333 741.583,416 741,416C740.45,416 740,414.863 740,413.474C740,410.334 731.978,402 728.955,402C723.935,402 723.084,405.693 722.385,430.5C722.12,439.91 721.481,447.649 720.953,447.833C720.429,448.017 720,451.692 720,456C720,461.289 719.594,464.023 718.75,464.417C717.75,464.883 717.75,465.117 718.75,465.583C720.208,466.264 720.502,476 719.065,476C718.538,476 718.123,481.128 718.115,487.733C718.106,495.03 717.704,499.599 717.05,499.817C716.473,500.009 716,502.829 716,506.083C716,509.337 715.648,512 715.218,512C714.788,512 714.334,513.237 714.209,514.75C714.085,516.263 713.537,517.65 712.991,517.833C711.692,518.27 711.7,524 713,524C713.55,524 714,525.8 714,528C714,530.2 713.592,532 713.093,532C711.284,532 709.442,556.088 711.024,559.046C711.804,560.503 711.862,561.467 711.195,561.879C710.639,562.223 709.933,565.654 709.627,569.502C709.321,573.351 708.592,580.325 708.006,585C706.821,594.457 705.308,609.837 704.515,620.5C704.229,624.35 703.546,627.65 702.997,627.833C702.449,628.017 702,631.279 702,635.083C702,638.888 701.578,642 701.063,642C700.548,642 700.137,645.924 700.15,650.721C700.166,656.134 699.762,659.579 699.087,659.804C698.489,660.004 698,660.714 698,661.384C698,663.158 695.627,667.983 694.75,667.992C694.337,667.996 694,669.35 694,671C694,672.65 693.55,674 693,674C692.45,674 692,675.35 692,677C692,678.65 691.55,680 691,680C690.45,680 690,681.35 690,683C690,685.333 689.556,686 688,686C686.9,686 686,686.45 686,687C686,688.833 682.94,688.03 680.455,685.545C678.944,684.035 678,681.942 678,680.104C678,678.462 677.55,676.84 677,676.5C676.45,676.16 676,673.968 676,671.63C676,668.759 675.35,666.679 674,665.23C672.9,664.05 672,662.555 672,661.909C672,661.263 670.987,659.834 669.75,658.733C668.224,657.375 667.902,656.586 668.75,656.282C669.438,656.035 670,654.521 670,652.917C670,651.313 670.512,650 671.137,650C671.947,650 672.062,648.057 671.538,643.25C671.133,639.538 670.404,632.675 669.918,628C669.431,623.325 668.759,616.913 668.424,613.75C668.089,610.587 667.436,608 666.972,608C666.508,608 665.887,603.388 665.591,597.75C664.648,579.75 663.865,572 662.99,572C662.521,572 661.911,567.837 661.634,562.75C661.358,557.663 660.615,550.125 659.985,546C659.354,541.875 658.624,532.65 658.363,525.5C658.102,518.35 657.463,512.072 656.944,511.55C655.68,510.278 655.73,500 657,500C657.55,500 658,499.1 658,498C658,496.9 657.55,496 657,496C656.364,496 656,488 656,474C656,460 655.636,452 655,452C654.45,452 654,451.421 654,450.712C654,450.004 652.668,447.866 651.041,445.962C649.413,444.058 648.063,441.587 648.041,440.471C648.018,439.355 647.1,437.793 646,437C644.48,435.904 644,434.411 644,430.779C644,428.151 643.55,426 643,426C642.45,426 642,425.1 642,424C642,422.9 641.55,422 641,422C640.45,422 640,420.855 640,419.455C640,416.365 635.886,412 632.974,412C630.516,412 628,414.198 628,416.345C628,417.164 627.51,417.997 626.911,418.196C626.263,418.412 625.844,421.279 625.874,425.28C625.903,428.976 625.509,432 624.999,432C624.469,432 624.066,438.853 624.057,448C624.048,457.782 624.422,464 625.021,464C625.625,464 626,471.271 626,483C626,494.129 626.388,502 626.936,502C627.45,502 628.102,506.613 628.384,512.25C629.098,526.538 630.028,534 631.093,534C631.592,534 632,535.35 632,537C632,538.65 631.55,540 631,540C630.45,540 630,541.098 630,542.441C630,543.784 630.45,545.16 631,545.5C631.55,545.84 632,547.891 632,550.059C632,552.227 632.45,554 633,554C633.55,554 634,555.35 634,557C634,558.65 633.55,560 633,560C632.403,560 632,563.84 632,569.519L632,579.037L625.519,585.519C621.954,589.083 618.354,592 617.519,592C616.683,592 616,592.71 616,593.578C616,594.447 614.2,596.939 612,599.117C609.8,601.295 608,603.636 608,604.318C608,605 607.1,606.207 606,607C604.826,607.847 604,609.589 604,611.221C604,612.749 603.55,614 603,614C602.45,614 602,614.704 602,615.565C602,616.426 599.75,619.321 597,622C594.25,624.679 592,627.574 592,628.435C592,629.296 591.55,630 591,630C590.45,630 590,630.9 590,632C590,633.556 589.333,634 587,634C584.167,634 584,633.778 584,630C584,627.8 584.43,626 584.955,626C585.509,626 586.096,618.74 586.35,608.75C586.592,599.263 587.11,589.579 587.502,587.231C587.918,584.737 587.797,582.45 587.212,581.731C586.661,581.054 586.189,575.325 586.162,569C586.002,530.532 585.709,517.387 584.995,516.5C584.249,515.572 583.022,505.07 583.126,500.5C583.151,499.4 583.177,497.825 583.183,497C583.202,494.642 581.92,487.703 581.059,485.5C579.285,480.963 578,476.23 578,474.238C578,473.072 577.55,471.84 577,471.5C576.448,471.159 576,466.656 576,461.441C576,455.814 575.596,452 575,452C574.45,452 574,451.281 574,450.401C574,449.522 572.65,447.541 571,446C569.35,444.459 568,442.478 568,441.599C568,440.719 567.55,440 567,440C566.45,440 566,438.2 566,436C566,433.8 565.55,432 565,432C564.45,432 564,430.406 564,428.458C564,426.299 563.219,424.079 562,422.77C560.9,421.589 560,419.583 560,418.311C560,416.667 559.423,416 558,416C556.874,416 556,415.333 556,414.474C556,412.489 547.511,404 545.526,404C544.687,404 544,403.55 544,403C544,401.232 540.489,401.934 539,404M1043.17,470.969C1042.45,472.602 1041.93,474.239 1042.02,474.607C1042.1,474.975 1041.57,475.664 1040.84,476.138C1039.74,476.845 1039.77,477.194 1041,478.076C1042.13,478.886 1042.19,479.278 1041.25,479.659C1039.75,480.269 1039.51,490 1041,490C1041.55,490 1042,491.35 1042,493C1042,494.65 1042.45,496 1043,496C1043.56,496 1044,498.667 1044,502C1044,505.3 1044.4,508 1044.9,508C1045.39,508 1046.08,510.137 1046.42,512.75C1047.96,524.547 1048.25,526 1049.1,526C1049.6,526 1050,526.873 1050,527.941C1050,529.009 1050.45,530.16 1051,530.5C1051.55,530.84 1052,534.916 1052,539.559C1052,544.52 1052.41,548 1053,548C1053.55,548 1054,549.251 1054,550.779C1054,552.411 1054.83,554.153 1056,555C1057.1,555.793 1058,557.143 1058,558C1058,558.857 1058.9,560.207 1060,561C1061.1,561.793 1062,563.242 1062,564.221C1062,565.199 1062.45,566 1063,566C1063.55,566 1064,566.9 1064,568C1064,569.1 1064.45,570 1065,570C1065.55,570 1066,571.35 1066,573C1066,574.65 1066.45,576 1067,576C1067.55,576 1068,576.9 1068,578C1068,579.1 1068.45,580 1069,580C1069.55,580 1070,581.8 1070,584C1070,586.2 1070.45,588 1071,588C1071.55,588 1072,589.8 1072,592C1072,594.2 1072.45,596 1073,596C1073.55,596 1074,596.9 1074,598C1074,599.1 1074.45,600 1075,600C1075.55,600 1076,601.8 1076,604C1076,607.333 1076.33,608 1078,608C1079.56,608 1080,608.667 1080,611C1080,613.333 1080.44,614 1082,614C1083.73,614 1084,614.667 1084,618.917C1084,621.872 1084.5,624.066 1085.25,624.417C1086.25,624.883 1086.25,625.117 1085.25,625.583C1083.16,626.556 1083.75,630 1086,630C1087.56,630 1088,630.667 1088,633C1088,634.65 1088.45,636 1089,636C1089.55,636 1090,636.9 1090,638C1090,639.1 1090.45,640 1091,640C1091.55,640 1092,641.925 1092,644.278C1092,648.416 1094.33,652 1097.01,652C1097.56,652 1098,653.35 1098,655C1098,656.65 1098.45,658 1099,658C1099.55,658 1100,658.801 1100,659.779C1100,660.758 1100.9,662.207 1102,663C1103.1,663.793 1104,665.242 1104,666.221C1104,667.199 1104.45,668 1105,668C1105.55,668 1106,668.717 1106,669.594C1106,670.47 1106.9,671.423 1108,671.71C1109.11,672 1110,673.074 1110,674.117C1110,675.152 1110.45,676 1111,676C1111.55,676 1112,676.9 1112,678C1112,679.152 1112.67,680 1113.57,680C1115.59,680 1118,682.408 1118,684.429C1118,685.293 1118.42,686 1118.93,686C1119.45,686 1120.01,687.237 1120.18,688.75C1120.43,690.91 1121.09,691.568 1123.25,691.816C1124.76,691.99 1126,692.553 1126,693.066C1126,693.58 1126.86,694 1127.92,694C1128.97,694 1130.02,694.558 1130.25,695.241C1130.55,696.144 1131.12,696.027 1132.33,694.813C1134.29,692.853 1134.55,688.422 1132.75,687.583C1131.75,687.117 1131.75,686.883 1132.75,686.417C1134.23,685.727 1134.46,678 1133,678C1132.42,678 1132,674.667 1132,670C1132,665.333 1131.58,662 1131,662C1130.45,662 1130,660.65 1130,659C1130,657.35 1129.55,656 1129,656C1128.45,656 1128,655.1 1128,654C1128,652.9 1127.55,652 1127,652C1126.45,652 1126,650.758 1126,649.241C1126,647.564 1125.21,645.991 1124,645.232C1122.17,644.087 1122,644.233 1122,646.992C1122,648.646 1121.52,650 1120.92,650C1120.3,650 1119.92,648.22 1120.02,645.75C1120.33,637.784 1120.06,636 1118.5,636C1117.67,636 1117,636.482 1117,637.071C1117,637.661 1116.33,637.468 1115.5,636.643C1114.67,635.818 1114,634.179 1114,633C1114,630.483 1111.8,628 1109.57,628C1108.47,628 1107.99,627.028 1107.98,624.75C1107.97,622.962 1107.08,620.375 1106,619C1104.92,617.625 1104.03,616.037 1104.02,615.471C1104.01,614.905 1103.1,613.793 1102,613C1100.61,611.996 1100,610.411 1100,607.779C1100,605.701 1099.61,604 1099.12,604C1098.05,604 1096.56,600.23 1094.88,593.25C1094.19,590.362 1093.26,588 1092.81,588C1092.37,588 1092,587.093 1092,585.984C1092,583.168 1089.67,576 1088.76,576C1088.34,576 1088,574.902 1088,573.559C1088,572.216 1087.55,570.84 1087,570.5C1086.45,570.16 1086,569.009 1086,567.941C1086,566.873 1085.55,566 1085,566C1084.45,566 1084,564.2 1084,562C1084,559.8 1083.55,558 1083,558C1082.45,558 1082,557.1 1082,556C1082,554.748 1081.33,554 1080.22,554C1079.02,554 1078.37,553.144 1078.22,551.367C1078.1,549.92 1076.99,547.834 1075.75,546.733C1074.22,545.375 1073.9,544.586 1074.75,544.282C1076.66,543.596 1076.24,540.613 1074,539C1072.48,537.904 1072,536.411 1072,532.779C1072,530.151 1071.55,528 1071,528C1070.45,528 1070,526.65 1070,525C1070,523.35 1069.55,522 1069,522C1068.45,522 1068,521.1 1068,520C1068,518.9 1067.55,518 1067,518C1066.45,518 1066,516.902 1066,515.559C1066,514.216 1065.55,512.84 1065,512.5C1064.45,512.16 1064,510.159 1064,508.054C1064,504.996 1063.4,503.75 1061.01,501.863C1058.99,500.27 1058.02,498.604 1058.01,496.75C1058,493.948 1056.53,492.984 1055.72,495.25C1055.46,495.977 1054.9,496.129 1054.39,495.613C1053.87,495.097 1054.02,494.539 1054.75,494.28C1056.27,493.738 1056.43,490 1054.94,490C1054.36,490 1054.16,489.55 1054.5,489C1054.84,488.45 1054.3,487.993 1053.31,487.985C1051.78,487.972 1051.73,487.822 1053,487C1054,486.354 1054.08,486.026 1053.25,486.015C1052.56,486.007 1052,485.1 1052,484C1052,482.9 1051.46,482 1050.8,482C1049.87,482 1049.87,481.733 1050.8,480.8C1052.25,479.347 1052.39,476 1051,476C1050.45,476 1050,475.305 1050,474.455C1050,473.179 1045.82,468 1044.79,468C1044.62,468 1043.9,469.336 1043.17,470.969M540,641C540,641.55 538.65,642 537,642C534.667,642 534,642.444 534,644C534,645.1 533.55,646 533,646C532.371,646 532,652.639 532,663.917C532,677.249 531.684,681.939 530.765,682.245C529.784,682.572 529.784,683.891 530.765,688.639C531.444,691.929 532,696.088 532,697.882C532,701.988 533.973,704 538,704C540.536,704 542.384,702.753 547.571,697.54C551.107,693.986 554,690.386 554,689.54C554,688.693 554.45,688 555,688C555.55,688 556,687.1 556,686C556,684.667 556.667,684 558,684C559.775,684 560.168,683.476 559.934,681.424C559.898,681.108 560.798,680.042 561.934,679.057C563.07,678.072 564,676.531 564,675.633C564,674.735 564.45,674 565,674C565.55,674 566,673.1 566,672C566,670.9 566.45,670 567,670C567.55,670 568,669.1 568,668C568,666.9 568.45,666 569,666C569.55,666 570,665.1 570,664C570,662.9 569.55,662 569,662C568.45,662 568.113,661.508 568.25,660.907C568.388,660.306 567.6,659.293 566.5,658.657C565.4,658.021 564.128,657.05 563.674,656.5C563.139,655.852 562.669,655.94 562.341,656.75C561.4,659.069 560,658.022 560,655C560,652.333 559.667,652 557,652C554.333,652 554,651.667 554,649C554,646.667 553.556,646 552,646C550.9,646 550,645.55 550,645C550,644.45 548.749,644 547.221,644C545.589,644 543.847,643.174 543,642C541.454,639.855 540,639.371 540,641M1120,834.907C1120,835.407 1117.64,836.047 1114.75,836.33C1106.28,837.161 1102.61,838.171 1100.88,840.146C1099.99,841.166 1098.72,842 1098.06,842C1096.55,842 1094,844.49 1094,845.96C1094,846.567 1093.21,847.361 1092.25,847.725C1088,849.334 1086.33,854 1090,854C1091.33,854 1092,854.667 1092,856C1092,857.333 1092.67,858 1094,858C1095.1,858 1096,858.398 1096,858.883C1096,859.369 1096.9,860.002 1098,860.29C1099.1,860.577 1100,861.53 1100,862.406C1100,863.681 1101.16,864 1105.78,864C1110.41,864 1111.85,864.397 1113,866C1113.79,867.1 1115.2,868 1116.14,868C1117.07,868 1118.1,868.563 1118.42,869.25C1118.88,870.25 1119.12,870.25 1119.58,869.25C1120.27,867.773 1128,867.543 1128,869C1128,869.55 1129.8,870 1132,870C1134.2,870 1136,870.45 1136,871C1136,871.55 1136.9,872 1138,872C1139.1,872 1140,872.45 1140,873C1140,873.556 1142.67,874 1146,874C1151.33,874 1152,874.222 1152,876C1152,878.341 1154.49,878.653 1156.57,876.571C1158.19,874.956 1158.53,868 1157,868C1156.45,868 1156,867.199 1156,866.221C1156,865.242 1155.1,863.793 1154,863C1152.9,862.207 1152,860.962 1152,860.234C1152,858.409 1147.43,854 1145.55,854C1144.55,854 1144,853.081 1144,851.429C1144,848.786 1141.72,845.611 1140.62,846.714C1140.28,847.055 1140,846.776 1140,846.095C1140,844.139 1137.1,841.749 1135.47,842.371C1134.66,842.683 1134,842.469 1134,841.897C1134,840.331 1131.35,838 1129.57,838C1128.71,838 1128,837.55 1128,837C1128,836.45 1126.9,836 1125.56,836C1124.22,836 1122.84,835.55 1122.5,835C1121.73,833.751 1120,833.687 1120,834.907" style="fill:rgb(255,0,161);"/>
</svg>
